<?xml version="1.0" encoding="UTF-8" standalone="no"?>
<!DOCTYPE svg PUBLIC "-//W3C//DTD SVG 1.1//EN" "http://www.w3.org/Graphics/SVG/1.1/DTD/svg11.dtd">
<svg width="100%" height="100%" viewBox="0 0 3873 3873" version="1.1" xmlns="http://www.w3.org/2000/svg" xmlns:xlink="http://www.w3.org/1999/xlink" xml:space="preserve" xmlns:serif="http://www.serif.com/" style="fill-rule:evenodd;clip-rule:evenodd;stroke-linejoin:round;stroke-miterlimit:2;">
    <g>
        <path d="M3555.4,2806L2079.5,2806C2057.4,2806 2039.3,2787.9 2039.3,2765.8C2039.3,2743.7 2057.4,2725.6 2079.5,2725.6L3555.4,2725.6C3577.5,2725.6 3594.8,2707.5 3594.8,2686.2L3594.8,2378.9C3594.8,2218.1 3493.9,2073.2 3343.4,2016.4L2738.2,1817.8C2721.7,1812.3 2710.6,1797.3 2710.6,1780L2710.6,1542C2710.6,1519.9 2728.7,1501.8 2750.8,1501.8C2772.9,1501.8 2791,1519.9 2791,1542L2791,1750.8L3369.4,1940.7C3370.2,1940.7 3370.2,1940.7 3371,1941.5C3553,2009.3 3675.2,2185 3675.2,2378.8L3675.2,2686.1C3674.4,2752.5 3621.6,2806 3555.4,2806ZM1897.5,1897.5C1881,1897.5 1865.2,1887.3 1859.7,1869.9C1852.6,1848.6 1864.4,1826.6 1884.9,1819.5L2092.9,1750.9L2092.9,1542.1C2092.9,1520 2111,1501.9 2133.1,1501.9C2155.2,1501.9 2173.3,1520 2173.3,1542.1L2173.3,1780.1C2173.3,1797.4 2162.3,1812.4 2145.7,1817.9L1910.1,1895.1C1906.2,1896.7 1901.4,1897.5 1897.5,1897.5Z"/>
        <path d="M3211.1,2806C3189,2806 3170.9,2787.9 3170.9,2765.8L3170.9,2505C3170.9,2482.9 3189,2464.8 3211.1,2464.8C3233.2,2464.8 3251.3,2482.9 3251.3,2505L3251.3,2765.8C3250.5,2787.9 3232.3,2806 3211.1,2806Z"/>
        <path d="M2904.5,1078C2900.6,1078 2897.4,1077.2 2893.5,1076.4C2872.2,1070.1 2859.6,1048.8 2865.9,1027.5C2873.8,999.9 2886.4,971.6 2899.8,941.6C2949.4,832.1 3005.4,708.4 2881.7,507.4C2880.1,504.2 2878.5,501.1 2877.8,497.9C2877,494.7 2852.6,422.3 2758,363.9C2629.6,285.1 2432.6,274.1 2188.3,332.4C2185.1,333.2 2182,333.2 2178.8,333.2L1897.5,333.2L2012.5,456.9C2020.4,465.6 2023.5,476.6 2022.7,487.6C2021.9,498.6 2015.6,508.9 2006.9,516C1998.2,522.3 1787.8,686.2 2011.6,1004.6C2024.2,1022.7 2020.3,1047.2 2002.1,1059.8C1984,1072.4 1959.5,1068.5 1946.9,1050.3C1807.4,851.7 1816.9,700.4 1850,608.2C1870.5,549.9 1903.6,507.3 1927.2,481.3L1778.3,320.5C1767.3,308.7 1764.9,292.1 1771.2,277.2C1777.5,263 1791.7,253.6 1807.4,253.6L2175.4,253.6C2446.5,190.6 2658.4,205.5 2806.6,300.1C2908.3,364.7 2944.5,446.7 2952.4,468.7C3095,704.3 3021.7,866.6 2972.9,973.8C2960.3,1002.2 2949.3,1025.8 2943,1047.9C2938.4,1066.9 2921.9,1078 2904.5,1078Z"/>
        <path d="M2442,1700.5C2308,1700.5 2182.8,1648.5 2087.4,1553.9C1992.1,1458.6 1939.3,1332.5 1939.3,1197.7L1939.3,968.4C1939.3,951.9 1940.1,936.1 1941.7,919.5C1944.9,888.8 1951.9,860.4 1960.6,833.6C1998.4,725.6 2078.8,654.7 2205.7,616.1C2206.5,616.1 2207.3,615.3 2208.1,615.3C2217.6,612.9 2422.4,564.9 2552.5,693.3C2600.6,672.8 2699.9,639.7 2789.7,676C2855.1,702 2900.8,757.2 2926.8,840.7C2938.6,877.7 2944.1,918.7 2944.1,961.3L2944.1,1197.7C2944.1,1473.5 2720.3,1698.9 2444.5,1700.4C2443.6,1700.5 2442.8,1700.5 2442,1700.5ZM2444.4,1661.1M2228.4,692.6C2096,733.6 2055.8,803.7 2036.1,860.4C2029,881.7 2023.5,904.5 2021.1,929C2019.5,941.6 2018.7,955 2018.7,969.2L2018.7,1198.5C2018.7,1312 2062.8,1418.3 2143.2,1498.7C2223.6,1578.3 2330.7,1622.4 2444.2,1621.6C2675.9,1620 2865,1430.1 2865,1198.4L2865,962.1C2865,927.4 2860.3,895.1 2850.8,865.2C2832.7,806.1 2801.9,767.5 2760.2,750.9C2674.3,716.2 2563.2,776.9 2561.6,777.7C2544.3,787.2 2523,783.2 2511.2,767.5C2419.9,652.5 2242.6,689.5 2228.4,692.6Z"/>
        <path d="M2442,2806C2419.9,2806 2401.8,2787.9 2401.8,2765.8L2401.8,2002.2C2401.8,1980.1 2419.9,1962 2442,1962C2464.1,1962 2482.2,1979.3 2482.2,2001.4L2482.2,2765.8C2481.4,2787.9 2464.1,2806 2442,2806Z"/>
        <path d="M2746.2,2251.3C2729.7,2251.3 2713.1,2246.6 2698.9,2236.3L2419.2,2034.6C2418.4,2033.8 2418.4,2033.8 2417.6,2033L2110.3,1812.4C2092.2,1799.8 2088.2,1774.6 2100.8,1757.2C2113.4,1739.1 2138.6,1735.1 2156,1747.7L2464.9,1969.1C2465.7,1969.9 2465.7,1969.9 2466.5,1970.7L2745.4,2170.9L2747,2170.9L3049.6,1859.6C3064.6,1843.8 3089.8,1843.8 3105.5,1858.8C3121.3,1873.8 3122,1899 3106.3,1914.7L2803.7,2226C2788.7,2242.6 2767.4,2251.3 2746.2,2251.3Z"/>
        <path d="M2137.8,2251.3C2116.5,2251.3 2095.2,2243.4 2079.5,2226.9L2050.3,2197C2035.3,2181.2 2035.3,2156 2051.1,2141.1C2066.9,2126.1 2092.1,2126.1 2107,2141.9L2136.2,2171.8C2137,2172.6 2137,2172.6 2137.8,2171.8L2419.1,1970.1C2419.9,1969.3 2419.9,1969.3 2420.7,1969.3L2728,1748.7C2746.1,1736.1 2770.6,1740 2783.2,1758.2C2795.8,1776.3 2791.9,1800.8 2774.5,1814.1L2465.6,2036.3C2464.8,2037.1 2464.8,2037.1 2464,2037.1L2185.1,2237.3C2170.9,2245.8 2154.4,2251.3 2137.8,2251.3Z"/>
        <path d="M1966.8,3657.1L350.7,3657.1C267.2,3657.1 198.6,3588.5 198.6,3505L198.6,1970C198.6,1886.5 267.2,1817.9 350.7,1817.9L1967.7,1817.9C2051.2,1817.9 2119.8,1886.5 2119.8,1970L2119.8,3505C2118.9,3588.5 2051.1,3657.1 1966.8,3657.1ZM350.7,1897.5C310.5,1897.5 278.2,1929.8 278.2,1970L278.2,3505C278.2,3545.2 310.5,3577.5 350.7,3577.5L1967.7,3577.5C2007.9,3577.5 2040.2,3545.2 2040.2,3505L2040.2,1970C2040.2,1929.8 2007.9,1897.5 1967.7,1897.5L350.7,1897.5Z"/>
        <path d="M2079.5,2302.5L238,2302.5C215.9,2302.5 197.8,2284.4 197.8,2263.1C197.8,2241 215.9,2222.9 238,2222.9L2078.8,2222.9C2100.9,2222.9 2118.2,2241 2118.2,2263.1C2118.9,2284.4 2101.6,2302.5 2079.5,2302.5Z"/>
        <path d="M889.6,2167.8L509,2167.8C449.9,2167.8 401.8,2119.7 401.8,2060.6C401.8,2001.5 449.9,1953.4 509,1953.4L889.6,1953.4C948.7,1953.4 996.8,2001.5 996.8,2060.6C996.8,2119.7 948.7,2167.8 889.6,2167.8ZM509,2032.2C494,2032.2 481.4,2044.8 481.4,2059.8C481.4,2075.6 494,2087.4 509,2087.4L889.6,2087.4C904.6,2087.4 917.2,2074.8 917.2,2059.8C917.2,2044 904.6,2032.2 889.6,2032.2L509,2032.2Z"/>
        <path d="M1235.6,2100L1126.9,2100C1104.8,2100 1086.7,2081.9 1086.7,2059.8C1086.7,2037.7 1104.8,2019.6 1126.9,2019.6L1235.6,2019.6C1257.7,2019.6 1275.8,2037.7 1275.8,2059.8C1275.8,2081.9 1257.6,2100 1235.6,2100Z"/>
        <path d="M1514.5,2100L1405.8,2100C1383.7,2100 1365.6,2081.9 1365.6,2059.8C1365.6,2037.7 1383.7,2019.6 1405.8,2019.6L1514.5,2019.6C1536.6,2019.6 1554.7,2037.7 1554.7,2059.8C1553.9,2081.9 1536.6,2100 1514.5,2100Z"/>
        <path d="M1792.7,2100L1684,2100C1661.9,2100 1643.8,2081.9 1643.8,2059.8C1643.8,2037.7 1661.9,2019.6 1684,2019.6L1792.7,2019.6C1814.8,2019.6 1832.9,2037.7 1832.9,2059.8C1832.9,2081.9 1814.7,2100 1792.7,2100Z"/>
        <path d="M1225.3,2847.8C1209.5,2847.8 1193.8,2837.6 1188.3,2821.8L1055.1,2466.4C1047.2,2445.9 1057.5,2423.1 1078.7,2415.2C1099.2,2407.3 1122,2417.6 1129.9,2438.8L1263.1,2794.2C1271,2814.7 1260.7,2837.5 1239.5,2845.4C1234.8,2847 1230.1,2847.8 1225.3,2847.8Z"/>
        <path d="M915.6,2847.8C907.7,2847.8 900.6,2845.4 893.5,2840.7L629.5,2663.4C618.5,2656.3 612.2,2643.7 612.2,2630.3C612.2,2616.9 618.5,2604.3 629.5,2597.2L892.7,2419.9C910.8,2407.3 936,2412.8 947.9,2430.9C960.5,2449 955,2474.2 936.9,2486.1L722.6,2631.1L936.9,2776.1C955,2788.7 959.8,2813.1 947.9,2831.3C940.9,2841.5 928.3,2847.8 915.6,2847.8Z"/>
        <path d="M1401.8,2847.8C1389.2,2847.8 1376.6,2841.5 1368.7,2830.5C1356.1,2812.4 1361.6,2787.2 1379.7,2775.3L1594,2630.3L1379.7,2485.3C1361.6,2472.7 1356.8,2448.3 1368.7,2430.1C1381.3,2412 1405.7,2407.2 1423.9,2419.1L1687.1,2596.4C1698.1,2603.5 1704.4,2616.1 1704.4,2629.5C1704.4,2642.9 1698.1,2654.7 1687.1,2662.6L1423.9,2839.9C1417.6,2845.4 1409.7,2847.8 1401.8,2847.8Z"/>
        <path d="M1775.3,3054.3L542.1,3054.3C520,3054.3 501.9,3036.2 501.9,3014.1C501.9,2992 520,2973.9 542.1,2973.9L1775.3,2973.9C1797.4,2973.9 1815.5,2992 1815.5,3014.1C1814.7,3036.1 1797.4,3054.3 1775.3,3054.3Z"/>
        <path d="M1775.3,3260.7L542.1,3260.7C520,3260.7 501.9,3242.6 501.9,3220.5C501.9,3198.4 520,3180.3 542.1,3180.3L1775.3,3180.3C1797.4,3180.3 1815.5,3198.4 1815.5,3220.5C1814.7,3242.6 1797.4,3260.7 1775.3,3260.7Z"/>
        <path d="M1775.3,3467.2L542.1,3467.2C520,3467.2 501.9,3449.1 501.9,3427C501.9,3404.9 520,3386.8 542.1,3386.8L1775.3,3386.8C1797.4,3386.8 1815.5,3404.9 1815.5,3427C1814.7,3449 1797.4,3467.2 1775.3,3467.2Z"/>
    </g>
</svg>
